<?xml version="1.0" encoding="UTF-8"?>
<!DOCTYPE svg PUBLIC "-//W3C//DTD SVG 1.1//EN" "http://www.w3.org/Graphics/SVG/1.1/DTD/svg11.dtd">
<svg xmlns="http://www.w3.org/2000/svg" version="1.1" width="1024px" height="768px" style="shape-rendering:geometricPrecision; text-rendering:geometricPrecision; image-rendering:optimizeQuality; fill-rule:evenodd; clip-rule:evenodd" xmlns:xlink="http://www.w3.org/1999/xlink">
<g><path style="opacity:0.91" fill="#010407" d="M 710.5,128.5 C 718.81,127.406 725.643,130.072 731,136.5C 738.554,152.385 749.387,165.552 763.5,176C 775.082,181.979 787.415,185.313 800.5,186C 802.641,187.308 804.641,188.808 806.5,190.5C 810.573,200.22 813.74,210.22 816,220.5C 813.885,239.648 817.219,257.648 826,274.5C 829.667,278.833 833.333,283.167 837,287.5C 837.658,289.8 838.158,292.133 838.5,294.5C 835.425,310.652 837.592,325.986 845,340.5C 849.454,345.628 853.121,351.295 856,357.5C 858.662,367.65 861.162,377.816 863.5,388C 863.132,391.57 861.798,394.737 859.5,397.5C 842.497,407.994 831.997,422.994 828,442.5C 827.667,457.5 827.333,472.5 827,487.5C 824.949,492.214 822.115,496.381 818.5,500C 654.841,547.436 490.841,594.103 326.5,640C 315.508,642.417 307.008,638.917 301,629.5C 290.438,599.929 269.604,583.429 238.5,580C 236.376,578.878 234.543,577.378 233,575.5C 227.05,560.673 224.717,545.34 226,529.5C 225,525.833 224,522.167 223,518.5C 223.824,504.032 221.158,490.366 215,477.5C 211,472.167 207,466.833 203,461.5C 207.017,438.246 201.35,417.913 186,400.5C 185.529,398.754 184.862,397.087 184,395.5C 180.448,382.732 177.281,369.898 174.5,357C 174.411,354.287 175.078,351.787 176.5,349.5C 189.523,341.31 200.023,330.643 208,317.5C 213.537,303.067 216.203,288.067 216,272.5C 217.119,267.761 219.619,263.928 223.5,261C 229.321,258.501 235.321,256.501 241.5,255C 397.92,213.018 554.253,170.852 710.5,128.5 Z"/></g>
<g><path style="opacity:1" fill="#010203" d="M 720.5,226.5 C 722.99,237.13 725.49,247.797 728,258.5C 743.52,314.917 759.187,371.251 775,427.5C 779.401,450.525 772.234,469.025 753.5,483C 747.901,485.637 742.234,487.804 736.5,489.5C 615.464,523.234 494.464,557.068 373.5,591C 368.511,591.499 363.511,591.666 358.5,591.5C 342.004,587.182 330.17,577.182 323,561.5C 302.456,486.206 282.123,410.872 262,335.5C 259.562,327.922 259.062,320.256 260.5,312.5C 264.029,298.464 272.696,288.964 286.5,284C 414.945,249.515 543.278,214.848 671.5,180C 690.128,178.73 703.961,186.23 713,202.5C 715.288,210.698 717.788,218.698 720.5,226.5 Z"/></g>
<g><path style="opacity:1" fill="#020509" d="M 718.5,187.5 C 724.111,195.945 730.944,203.279 739,209.5C 756.072,275.127 774.072,340.46 793,405.5C 793.667,408.167 793.667,410.833 793,413.5C 791.287,418.396 789.954,423.396 789,428.5C 788.848,441.203 788.182,453.869 787,466.5C 785.789,469.759 783.956,472.592 781.5,475C 776.083,477.861 770.416,480.027 764.5,481.5C 765.833,479.833 767.167,478.167 768.5,476.5C 780.548,463.169 785.048,447.503 782,429.5C 763.083,359.146 743.583,289.146 723.5,219.5C 722.652,212.625 720.986,205.958 718.5,199.5C 718.714,197.856 718.38,196.356 717.5,195C 718.167,194.667 718.833,194.333 719.5,194C 715.967,194.132 713.967,192.465 713.5,189C 714,188.5 714.5,188 715,187.5C 715.986,188.171 717.153,188.171 718.5,187.5 Z"/></g>
<g><path style="opacity:1" fill="#040c11" d="M 684.5,164.5 C 692.099,163.541 699.099,165.041 705.5,169C 710.442,174.769 714.775,180.936 718.5,187.5C 717.153,188.171 715.986,188.171 715,187.5C 714.5,188 714,188.5 713.5,189C 713.967,192.465 715.967,194.132 719.5,194C 718.833,194.333 718.167,194.667 717.5,195C 718.38,196.356 718.714,197.856 718.5,199.5C 711.758,186.775 701.425,178.275 687.5,174C 682.167,173.333 676.833,173.333 671.5,174C 540.523,209.494 409.523,244.827 278.5,280C 269.203,284.794 262.536,291.961 258.5,301.5C 255.944,305.35 254.444,309.684 254,314.5C 253.359,320.528 253.526,326.528 254.5,332.5C 253.778,332.082 253.278,331.416 253,330.5C 252.779,325.78 252.279,321.113 251.5,316.5C 250.833,315.167 250.167,315.167 249.5,316.5C 248.933,318.982 248.266,321.316 247.5,323.5C 247.907,314.129 248.741,304.795 250,295.5C 252.139,288.215 256.305,282.548 262.5,278.5C 282.289,272.052 302.289,266.218 322.5,261C 443.228,228.696 563.894,196.529 684.5,164.5 Z"/></g>
<g><path style="opacity:1" fill="#fafbfb" d="M 609.5,234.5 C 614.599,234.175 619.599,234.675 624.5,236C 626.617,237.731 628.117,239.898 629,242.5C 632.88,261.996 635.547,281.662 637,301.5C 638.333,300.167 639.667,298.833 641,297.5C 646.459,288.079 652.292,278.913 658.5,270C 660.087,269.138 661.754,268.471 663.5,268C 669.833,267.333 676.167,267.333 682.5,268C 693.311,270.93 695.477,277.097 689,286.5C 684.991,293.185 680.491,299.518 675.5,305.5C 682.809,315.31 690.309,324.976 698,334.5C 698.758,336.769 698.591,338.936 697.5,341C 687.143,347.727 675.81,350.394 663.5,349C 655.283,339.622 647.283,330.122 639.5,320.5C 639.458,330.445 639.291,340.445 639,350.5C 629.334,356.367 618.834,358.534 607.5,357C 604.066,355.651 601.899,353.151 601,349.5C 601.898,314.011 597.064,279.345 586.5,245.5C 588.066,242.776 590.399,240.942 593.5,240C 598.844,237.841 604.177,236.008 609.5,234.5 Z"/></g>
<g><path style="opacity:1" fill="#65c7e2" d="M 718.5,199.5 C 720.986,205.958 722.652,212.625 723.5,219.5C 722.751,218.469 722.085,217.302 721.5,216C 720.4,215.568 719.733,216.068 719.5,217.5C 720.302,220.449 720.636,223.449 720.5,226.5C 717.788,218.698 715.288,210.698 713,202.5C 703.961,186.23 690.128,178.73 671.5,180C 543.278,214.848 414.945,249.515 286.5,284C 272.696,288.964 264.029,298.464 260.5,312.5C 261.08,308.351 260.414,304.684 258.5,301.5C 262.536,291.961 269.203,284.794 278.5,280C 409.523,244.827 540.523,209.494 671.5,174C 676.833,173.333 682.167,173.333 687.5,174C 701.425,178.275 711.758,186.775 718.5,199.5 Z"/></g>
<g><path style="opacity:1" fill="#3dc6e9" d="M 673.5,151.5 C 671.781,153.376 670.947,155.376 671,157.5C 668.585,156.986 667.251,155.986 667,154.5C 665.5,155 664,155.5 662.5,156C 661.167,156.667 661.167,157.333 662.5,158C 660.144,158.155 657.811,158.155 655.5,158C 657.121,162.251 659.954,163.418 664,161.5C 665.512,162.257 666.846,163.257 668,164.5C 670.768,161.912 672.768,162.245 674,165.5C 677.394,164.544 680.894,164.211 684.5,164.5C 563.894,196.529 443.228,228.696 322.5,261C 302.289,266.218 282.289,272.052 262.5,278.5C 260.321,277.941 258.154,277.274 256,276.5C 255.055,276.905 254.388,277.572 254,278.5C 252.301,274.224 253.801,272.89 258.5,274.5C 258.5,273.5 258.5,272.5 258.5,271.5C 256.042,272.623 253.875,272.623 252,271.5C 252.372,269.884 253.039,268.217 254,266.5C 258.129,265.106 262.296,263.772 266.5,262.5C 267.713,262.253 268.38,261.586 268.5,260.5C 403.096,223.199 538.096,186.866 673.5,151.5 Z"/></g>
<g><path style="opacity:1" fill="#f8f8f8" d="M 471.5,262.5 C 486.652,261.489 494.152,268.489 494,283.5C 490.01,294.48 482.176,299.313 470.5,298C 458.29,292.682 454.79,283.849 460,271.5C 463.134,267.524 466.967,264.524 471.5,262.5 Z"/></g>
<g><path style="opacity:1" fill="#fafbfb" d="M 426.5,269.5 C 433.108,268.115 438.275,270.115 442,275.5C 447.361,308.803 454.194,341.803 462.5,374.5C 462.241,378.188 460.574,381.022 457.5,383C 447.59,388.067 437.257,389.401 426.5,387C 424.263,384.97 422.763,382.47 422,379.5C 420.651,346.043 414.484,313.543 403.5,282C 404.043,279.119 405.709,277.119 408.5,276C 414.435,273.303 420.435,271.136 426.5,269.5 Z"/></g>
<g><path style="opacity:1" fill="#fbfbfb" d="M 361.5,282.5 C 372.724,281.284 383.391,283.117 393.5,288C 400.085,293.357 402.251,300.191 400,308.5C 399.18,313.987 396.68,318.487 392.5,322C 390.167,322.667 387.833,322.667 385.5,322C 375.417,317.542 365.417,317.542 355.5,322C 345.93,329.664 342.763,339.498 346,351.5C 350.306,366.41 360.139,372.243 375.5,369C 383.899,365.614 390.899,360.28 396.5,353C 401.423,352.045 404.923,353.879 407,358.5C 413.292,366.811 413.959,375.478 409,384.5C 391.832,402.001 370.999,409.168 346.5,406C 322.932,399.763 309.099,384.597 305,360.5C 302.819,319.193 321.652,293.193 361.5,282.5 Z"/></g>
<g><path style="opacity:1" fill="#fafbfb" d="M 550.5,282.5 C 559.331,281.92 567.998,282.753 576.5,285C 586.451,290.498 589.284,298.665 585,309.5C 583.36,314.831 579.86,317.331 574.5,317C 568.017,311.39 560.683,309.724 552.5,312C 545.026,317.862 543.526,325.029 548,333.5C 554.627,339.643 561.794,340.143 569.5,335C 573.429,329.874 578.429,327.207 584.5,327C 592.856,334.335 594.689,342.835 590,352.5C 574.78,367.097 556.947,371.597 536.5,366C 515.212,354.483 507.712,336.983 514,313.5C 521.48,297.511 533.646,287.178 550.5,282.5 Z"/></g>
<g><path style="opacity:1" fill="#fafafa" d="M 480.5,300.5 C 487.131,299.652 492.631,301.652 497,306.5C 501.078,325.554 505.411,344.554 510,363.5C 511.443,368.212 510.277,372.045 506.5,375C 497.286,379.388 487.619,381.055 477.5,380C 474.333,378.833 472.167,376.667 471,373.5C 471.33,352.461 468.83,331.795 463.5,311.5C 463.811,308.349 465.477,306.182 468.5,305C 472.571,303.37 476.571,301.87 480.5,300.5 Z"/></g>
<g><path style="opacity:1" fill="#39c9ec" d="M 268.5,260.5 C 268.38,261.586 267.713,262.253 266.5,262.5C 262.296,263.772 258.129,265.106 254,266.5C 253.039,268.217 252.372,269.884 252,271.5C 253.875,272.623 256.042,272.623 258.5,271.5C 258.5,272.5 258.5,273.5 258.5,274.5C 253.801,272.89 252.301,274.224 254,278.5C 254.388,277.572 255.055,276.905 256,276.5C 258.154,277.274 260.321,277.941 262.5,278.5C 256.305,282.548 252.139,288.215 250,295.5C 248.741,304.795 247.907,314.129 247.5,323.5C 245.838,329.651 243.671,335.651 241,341.5C 240.333,343.5 240.333,345.5 241,347.5C 259.871,416.445 278.537,485.445 297,554.5C 308.866,563.57 317.866,574.903 324,588.5C 331.14,601.304 341.307,604.137 354.5,597C 353.584,596.722 352.918,596.222 352.5,595.5C 353.873,595.343 355.207,595.51 356.5,596C 356.167,596.333 355.833,596.667 355.5,597C 359.819,597.905 364.152,598.238 368.5,598C 417.294,584.338 465.96,570.838 514.5,557.5C 520.391,559.483 525.725,558.65 530.5,555C 532.108,554.342 533.275,554.842 534,556.5C 534.667,555.833 535.333,555.167 536,554.5C 538.667,555.833 541.333,557.167 544,558.5C 546.064,557.409 548.231,557.242 550.5,558C 549.5,558.333 548.5,558.667 547.5,559C 551.357,562.084 555.357,562.084 559.5,559C 558.672,558.085 557.672,557.419 556.5,557C 562.837,557.747 569.17,557.581 575.5,556.5C 490.789,580.933 405.789,604.933 320.5,628.5C 317.889,628.444 315.722,627.444 314,625.5C 308.59,613.668 301.923,602.668 294,592.5C 280.402,578.618 263.902,570.451 244.5,568C 242.417,562.26 240.584,556.426 239,550.5C 239.351,542.183 239.351,533.849 239,525.5C 238,522.5 237,519.5 236,516.5C 237.742,493.056 230.742,472.723 215,455.5C 214.965,450.189 215.132,444.855 215.5,439.5C 215.818,429.588 213.651,420.255 209,411.5C 205.06,404.564 200.727,397.897 196,391.5C 193.23,380.152 190.397,368.818 187.5,357.5C 189.339,354.511 192.006,352.344 195.5,351C 218.977,331.862 229.811,307.029 228,276.5C 229.709,271.459 233.209,268.625 238.5,268C 248.425,265.185 258.425,262.685 268.5,260.5 Z"/></g>
<g><path style="opacity:1" fill="#39c9ec" d="M 582.5,554.5 C 581.945,549.873 579.279,547.54 574.5,547.5C 578.091,544.924 582.091,543.258 586.5,542.5C 592.817,536.053 600.484,531.887 609.5,530C 613.784,528.674 618.117,528.008 622.5,528C 621.833,528.333 621.167,528.667 620.5,529C 621.833,529.667 621.833,530.333 620.5,531C 623.194,532.488 625.528,532.321 627.5,530.5C 629.789,532.416 631.956,534.416 634,536.5C 634.85,535.576 635.85,535.576 637,536.5C 637.5,536.167 638,535.833 638.5,535.5C 637.811,533.556 637.311,531.556 637,529.5C 635.601,528.773 634.101,528.273 632.5,528C 633.337,526.989 633.67,525.822 633.5,524.5C 635.924,524.808 638.257,524.474 640.5,523.5C 640.291,522.914 639.957,522.414 639.5,522C 647.96,520.068 656.293,517.735 664.5,515C 666.769,514.242 668.936,514.409 671,515.5C 676.644,512.596 682.477,510.096 688.5,508C 706.27,503.45 723.937,498.784 741.5,494C 745.643,491.95 749.976,490.284 754.5,489C 758.042,486.734 761.375,484.234 764.5,481.5C 770.416,480.027 776.083,477.861 781.5,475C 783.956,472.592 785.789,469.759 787,466.5C 788.182,453.869 788.848,441.203 789,428.5C 789.954,423.396 791.287,418.396 793,413.5C 793.667,410.833 793.667,408.167 793,405.5C 774.072,340.46 756.072,275.127 739,209.5C 730.944,203.279 724.111,195.945 718.5,187.5C 714.775,180.936 710.442,174.769 705.5,169C 699.099,165.041 692.099,163.541 684.5,164.5C 680.894,164.211 677.394,164.544 674,165.5C 672.768,162.245 670.768,161.912 668,164.5C 666.846,163.257 665.512,162.257 664,161.5C 659.954,163.418 657.121,162.251 655.5,158C 657.811,158.155 660.144,158.155 662.5,158C 661.167,157.333 661.167,156.667 662.5,156C 664,155.5 665.5,155 667,154.5C 667.251,155.986 668.585,156.986 671,157.5C 670.947,155.376 671.781,153.376 673.5,151.5C 687.13,146.759 701.13,143.259 715.5,141C 718.562,142.061 721.062,143.894 723,146.5C 737.964,177.808 762.631,195.475 797,199.5C 802.813,215.988 805.147,232.988 804,250.5C 806.475,267.115 813.475,281.448 825,293.5C 822.489,312.931 825.822,331.264 835,348.5C 838.726,353.228 842.059,358.228 845,363.5C 846.627,371.382 848.461,379.215 850.5,387C 843.376,393.122 836.543,399.622 830,406.5C 822.289,416.954 817.289,428.62 815,441.5C 814.806,455.172 814.806,468.838 815,482.5C 814.394,485.548 812.894,488.048 810.5,490C 734.612,512.137 658.612,533.637 582.5,554.5 Z"/></g>
<g><path style="opacity:1" fill="#040e12" d="M 791.5,306.5 C 796.486,306.305 798.152,308.472 796.5,313C 791.976,314.089 787.476,315.256 783,316.5C 781.893,316.415 780.893,316.081 780,315.5C 779.202,313.741 779.369,312.074 780.5,310.5C 784.276,309.133 787.943,307.8 791.5,306.5 Z"/></g>
<g><path style="opacity:1" fill="#050d12" d="M 784.5,291.5 C 787.187,291.336 789.854,291.503 792.5,292C 793.554,293.388 793.72,294.888 793,296.5C 787.752,298.918 782.252,300.084 776.5,300C 775.446,298.612 775.28,297.112 776,295.5C 778.858,294.107 781.692,292.773 784.5,291.5 Z"/></g>
<g><path style="opacity:1" fill="#040d11" d="M 781.5,275.5 C 783.924,275.192 786.257,275.526 788.5,276.5C 789.428,277.768 789.595,279.101 789,280.5C 783.69,282.868 778.19,284.368 772.5,285C 771.424,283.274 771.257,281.441 772,279.5C 775.285,278.227 778.452,276.894 781.5,275.5 Z"/></g>
<g><path style="opacity:1" fill="#050e12" d="M 779.5,259.5 C 785.016,259.473 786.349,261.64 783.5,266C 778.098,268.236 772.598,269.07 767,268.5C 766.28,266.888 766.446,265.388 767.5,264C 771.704,262.769 775.704,261.269 779.5,259.5 Z"/></g>
<g><path style="opacity:1" fill="#02090c" d="M 772.5,244.5 C 774.857,244.337 777.19,244.503 779.5,245C 780.833,246.667 780.833,248.333 779.5,250C 774.154,252.555 768.654,253.388 763,252.5C 762.28,250.888 762.446,249.388 763.5,248C 766.662,246.973 769.662,245.806 772.5,244.5 Z"/></g>
<g><path style="opacity:1" fill="#040e13" d="M 768.5,228.5 C 770.857,228.337 773.19,228.503 775.5,229C 776.833,230.667 776.833,232.333 775.5,234C 770.701,235.575 765.868,237.075 761,238.5C 757.174,237.031 756.674,234.864 759.5,232C 762.571,230.704 765.571,229.538 768.5,228.5 Z"/></g>
<g><path style="opacity:1" fill="#020509" d="M 254.5,332.5 C 274.799,408.135 295.299,483.802 316,559.5C 321.985,577.318 333.818,589.318 351.5,595.5C 351.833,595.5 352.167,595.5 352.5,595.5C 352.918,596.222 353.584,596.722 354.5,597C 341.307,604.137 331.14,601.304 324,588.5C 317.866,574.903 308.866,563.57 297,554.5C 278.537,485.445 259.871,416.445 241,347.5C 240.333,345.5 240.333,343.5 241,341.5C 243.671,335.651 245.838,329.651 247.5,323.5C 248.266,321.316 248.933,318.982 249.5,316.5C 250.167,315.167 250.833,315.167 251.5,316.5C 252.279,321.113 252.779,325.78 253,330.5C 253.278,331.416 253.778,332.082 254.5,332.5 Z"/></g>
<g><path style="opacity:1" fill="#040c11" d="M 794.5,323.5 C 796.527,323.338 798.527,323.505 800.5,324C 801.833,325.667 801.833,327.333 800.5,329C 795.622,330.292 790.788,331.792 786,333.5C 785.228,333.355 784.561,333.022 784,332.5C 783.257,330.559 783.424,328.726 784.5,327C 787.942,325.816 791.275,324.65 794.5,323.5 Z"/></g>
<g><path style="opacity:1" fill="#39cbed" d="M 561.5,376.5 C 571.55,376.169 581.55,376.669 591.5,378C 607.255,382.529 612.422,392.696 607,408.5C 605.538,415.465 601.371,419.465 594.5,420.5C 590.039,419.847 585.706,418.68 581.5,417C 560.387,413.974 547.22,422.808 542,443.5C 540.05,454.534 542.55,464.367 549.5,473C 560.924,479.841 571.424,478.675 581,469.5C 582.908,466.794 583.741,463.794 583.5,460.5C 568.898,464.063 563.398,458.397 567,443.5C 568.122,441.376 569.622,439.543 571.5,438C 582.167,435.333 592.833,432.667 603.5,430C 610.617,428.142 615.451,430.642 618,437.5C 626.206,482.597 607.706,508.764 562.5,516C 529.196,519.312 507.696,505.145 498,473.5C 492.457,423.564 513.623,391.231 561.5,376.5 Z"/></g>
<g><path style="opacity:1" fill="#5ac9e4" d="M 723.5,219.5 C 743.583,289.146 763.083,359.146 782,429.5C 785.048,447.503 780.548,463.169 768.5,476.5C 768.631,475.761 768.464,475.094 768,474.5C 763.289,477.919 758.455,481.252 753.5,484.5C 752.571,485.689 752.238,487.022 752.5,488.5C 747.292,488.213 741.958,488.546 736.5,489.5C 742.234,487.804 747.901,485.637 753.5,483C 772.234,469.025 779.401,450.525 775,427.5C 759.187,371.251 743.52,314.917 728,258.5C 725.49,247.797 722.99,237.13 720.5,226.5C 720.636,223.449 720.302,220.449 719.5,217.5C 719.733,216.068 720.4,215.568 721.5,216C 722.085,217.302 722.751,218.469 723.5,219.5 Z"/></g>
<g><path style="opacity:1" fill="#7fdff7" d="M 694.5,398.5 C 694.833,398.5 695.167,398.5 695.5,398.5C 694.634,400.144 694.134,401.811 694,403.5C 696.672,402.241 698.839,402.908 700.5,405.5C 697.177,406.938 696.844,408.771 699.5,411C 698.022,413.457 696.689,415.957 695.5,418.5C 696.985,421.119 697.985,423.952 698.5,427C 698.507,428.812 697.84,430.312 696.5,431.5C 698.105,436.861 699.105,442.361 699.5,448C 699.167,448.333 698.833,448.667 698.5,449C 699.39,453.279 700.723,457.445 702.5,461.5C 699.41,463.762 697.41,466.762 696.5,470.5C 697.425,472.849 698.425,472.683 699.5,470C 700.793,469.51 702.127,469.343 703.5,469.5C 697.081,475.892 689.415,480.225 680.5,482.5C 677.695,481.681 674.695,481.181 671.5,481C 673.973,477.278 675.306,473.112 675.5,468.5C 674.382,464.071 674.382,459.905 675.5,456C 671.706,456.588 668.04,455.755 664.5,453.5C 663.702,453.043 663.369,452.376 663.5,451.5C 679.998,458.075 688.332,452.408 688.5,434.5C 688.324,430.967 686.991,427.967 684.5,425.5C 680.77,424.147 677.104,422.814 673.5,421.5C 673.765,416.531 674.765,411.698 676.5,407C 675.498,405.234 675.832,403.567 677.5,402C 675.51,400.249 673.177,399.249 670.5,399C 671.5,398.5 672.5,398 673.5,397.5C 680.364,398.149 687.198,398.816 694,399.5C 694.399,399.272 694.565,398.938 694.5,398.5 Z"/></g>
<g><path style="opacity:1" fill="#99e4f6" d="M 694.5,398.5 C 694.565,398.938 694.399,399.272 694,399.5C 687.198,398.816 680.364,398.149 673.5,397.5C 672.5,398 671.5,398.5 670.5,399C 673.177,399.249 675.51,400.249 677.5,402C 675.832,403.567 675.498,405.234 676.5,407C 674.765,411.698 673.765,416.531 673.5,421.5C 677.104,422.814 680.77,424.147 684.5,425.5C 686.991,427.967 688.324,430.967 688.5,434.5C 683.471,424.249 675.804,421.749 665.5,427C 658.307,434.626 657.64,442.793 663.5,451.5C 663.369,452.376 663.702,453.043 664.5,453.5C 668.04,455.755 671.706,456.588 675.5,456C 674.382,459.905 674.382,464.071 675.5,468.5C 675.306,473.112 673.973,477.278 671.5,481C 674.695,481.181 677.695,481.681 680.5,482.5C 670.462,485.292 660.462,485.126 650.5,482C 647.102,480.643 644.102,478.81 641.5,476.5C 642.959,476.567 644.292,476.234 645.5,475.5C 648.069,476.396 650.069,478.062 651.5,480.5C 652.689,481.429 654.022,481.762 655.5,481.5C 655.33,480.178 655.663,479.011 656.5,478C 655.833,477 655.167,476 654.5,475C 655.767,473.204 655.767,471.371 654.5,469.5C 656.518,465.607 657.852,461.44 658.5,457C 656.642,450.126 654.976,443.293 653.5,436.5C 653.833,435.833 654.167,435.167 654.5,434.5C 652.735,432.125 651.568,429.458 651,426.5C 651.206,421.332 650.04,416.666 647.5,412.5C 647.977,411.522 648.643,410.689 649.5,410C 648.551,409.383 647.718,409.549 647,410.5C 646.517,409.552 646.351,408.552 646.5,407.5C 660.979,396.003 676.979,393.003 694.5,398.5 Z"/></g>
<g><path style="opacity:1" fill="#a7ebfb" d="M 646.5,407.5 C 646.351,408.552 646.517,409.552 647,410.5C 647.718,409.549 648.551,409.383 649.5,410C 648.643,410.689 647.977,411.522 647.5,412.5C 650.04,416.666 651.206,421.332 651,426.5C 651.568,429.458 652.735,432.125 654.5,434.5C 654.167,435.167 653.833,435.833 653.5,436.5C 654.976,443.293 656.642,450.126 658.5,457C 657.852,461.44 656.518,465.607 654.5,469.5C 655.767,471.371 655.767,473.204 654.5,475C 655.167,476 655.833,477 656.5,478C 655.663,479.011 655.33,480.178 655.5,481.5C 654.022,481.762 652.689,481.429 651.5,480.5C 650.069,478.062 648.069,476.396 645.5,475.5C 646.212,471.81 646.545,468.143 646.5,464.5C 645.501,461.172 644.501,457.839 643.5,454.5C 644.43,452.895 644.43,451.395 643.5,450C 646.014,447.933 645.848,446.433 643,445.5C 641.451,441.519 641.285,437.519 642.5,433.5C 640.316,430.381 639.649,427.048 640.5,423.5C 639.872,421.742 638.872,420.242 637.5,419C 638.412,416.749 639.412,414.583 640.5,412.5C 641.911,410.086 643.911,408.419 646.5,407.5 Z"/></g>
<g><path style="opacity:1" fill="#38caed" d="M 401.5,408.5 C 414.879,406.844 427.546,409.01 439.5,415C 448.92,421.346 452.753,430.179 451,441.5C 447.532,452.108 441.365,460.775 432.5,467.5C 438.49,469.831 444.49,472.164 450.5,474.5C 451.377,471.175 451.544,467.842 451,464.5C 469.114,453.772 480.781,458.439 486,478.5C 487.027,486.646 486.527,494.646 484.5,502.5C 486.774,505.95 489.274,509.283 492,512.5C 494.144,521.044 491.644,527.877 484.5,533C 479.175,537.496 473.175,540.662 466.5,542.5C 463.809,542.321 461.475,541.321 459.5,539.5C 432.268,558.483 402.601,563.65 370.5,555C 347.751,545.002 339.251,527.836 345,503.5C 349.71,493.555 356.21,485.055 364.5,478C 352.177,469.845 347.01,458.345 349,443.5C 355.264,429.906 365.43,420.406 379.5,415C 386.77,412.188 394.104,410.021 401.5,408.5 Z"/></g>
<g><path style="opacity:1" fill="#67d8f3" d="M 695.5,398.5 C 718.15,408.566 725.65,425.566 718,449.5C 714.858,457.473 710.025,464.14 703.5,469.5C 702.127,469.343 700.793,469.51 699.5,470C 698.425,472.683 697.425,472.849 696.5,470.5C 697.41,466.762 699.41,463.762 702.5,461.5C 700.723,457.445 699.39,453.279 698.5,449C 698.833,448.667 699.167,448.333 699.5,448C 699.105,442.361 698.105,436.861 696.5,431.5C 697.84,430.312 698.507,428.812 698.5,427C 697.985,423.952 696.985,421.119 695.5,418.5C 696.689,415.957 698.022,413.457 699.5,411C 696.844,408.771 697.177,406.938 700.5,405.5C 698.839,402.908 696.672,402.241 694,403.5C 694.134,401.811 694.634,400.144 695.5,398.5 Z"/></g>
<g><path style="opacity:1" fill="#020407" d="M 688.5,434.5 C 688.332,452.408 679.998,458.075 663.5,451.5C 657.64,442.793 658.307,434.626 665.5,427C 675.804,421.749 683.471,424.249 688.5,434.5 Z"/></g>
<g><path style="opacity:1" fill="#b7eefb" d="M 640.5,412.5 C 639.412,414.583 638.412,416.749 637.5,419C 638.872,420.242 639.872,421.742 640.5,423.5C 639.649,427.048 640.316,430.381 642.5,433.5C 641.285,437.519 641.451,441.519 643,445.5C 645.848,446.433 646.014,447.933 643.5,450C 644.43,451.395 644.43,452.895 643.5,454.5C 644.501,457.839 645.501,461.172 646.5,464.5C 646.545,468.143 646.212,471.81 645.5,475.5C 644.292,476.234 642.959,476.567 641.5,476.5C 630.522,469.046 625.188,458.546 625.5,445C 625.542,431.756 630.542,420.923 640.5,412.5 Z"/></g>
<g><path style="opacity:1" fill="#04080c" d="M 400.5,438.5 C 412.824,438.489 416.657,444.156 412,455.5C 404.497,462.713 397.83,462.046 392,453.5C 391.21,450.366 391.543,447.366 393,444.5C 395.114,441.879 397.614,439.879 400.5,438.5 Z"/></g>
<g><path style="opacity:1" fill="#010307" d="M 402.5,491.5 C 415.368,495.932 428.034,500.932 440.5,506.5C 432.55,516.306 422.216,520.973 409.5,520.5C 395.767,521.932 389.6,515.932 391,502.5C 394.07,497.927 397.904,494.261 402.5,491.5 Z"/></g>
<g><path style="opacity:1" fill="#4fcdee" d="M 768.5,476.5 C 767.167,478.167 765.833,479.833 764.5,481.5C 761.375,484.234 758.042,486.734 754.5,489C 749.976,490.284 745.643,491.95 741.5,494C 723.937,498.784 706.27,503.45 688.5,508C 682.477,510.096 676.644,512.596 671,515.5C 668.936,514.409 666.769,514.242 664.5,515C 656.293,517.735 647.96,520.068 639.5,522C 639.957,522.414 640.291,522.914 640.5,523.5C 638.257,524.474 635.924,524.808 633.5,524.5C 633.67,525.822 633.337,526.989 632.5,528C 634.101,528.273 635.601,528.773 637,529.5C 637.311,531.556 637.811,533.556 638.5,535.5C 638,535.833 637.5,536.167 637,536.5C 635.85,535.576 634.85,535.576 634,536.5C 631.956,534.416 629.789,532.416 627.5,530.5C 625.528,532.321 623.194,532.488 620.5,531C 621.833,530.333 621.833,529.667 620.5,529C 621.167,528.667 621.833,528.333 622.5,528C 618.117,528.008 613.784,528.674 609.5,530C 600.484,531.887 592.817,536.053 586.5,542.5C 582.091,543.258 578.091,544.924 574.5,547.5C 579.279,547.54 581.945,549.873 582.5,554.5C 580.401,555.612 578.067,556.279 575.5,556.5C 569.17,557.581 562.837,557.747 556.5,557C 557.672,557.419 558.672,558.085 559.5,559C 555.357,562.084 551.357,562.084 547.5,559C 548.5,558.667 549.5,558.333 550.5,558C 548.231,557.242 546.064,557.409 544,558.5C 541.333,557.167 538.667,555.833 536,554.5C 535.333,555.167 534.667,555.833 534,556.5C 533.275,554.842 532.108,554.342 530.5,555C 525.725,558.65 520.391,559.483 514.5,557.5C 465.96,570.838 417.294,584.338 368.5,598C 364.152,598.238 359.819,597.905 355.5,597C 355.833,596.667 356.167,596.333 356.5,596C 355.207,595.51 353.873,595.343 352.5,595.5C 352.167,595.5 351.833,595.5 351.5,595.5C 352.829,592.52 355.163,591.187 358.5,591.5C 363.511,591.666 368.511,591.499 373.5,591C 494.464,557.068 615.464,523.234 736.5,489.5C 741.958,488.546 747.292,488.213 752.5,488.5C 752.238,487.022 752.571,485.689 753.5,484.5C 758.455,481.252 763.289,477.919 768,474.5C 768.464,475.094 768.631,475.761 768.5,476.5 Z"/></g>
<g><path style="opacity:1" fill="#5ac8e3" d="M 258.5,301.5 C 260.414,304.684 261.08,308.351 260.5,312.5C 259.062,320.256 259.562,327.922 262,335.5C 282.123,410.872 302.456,486.206 323,561.5C 330.17,577.182 342.004,587.182 358.5,591.5C 355.163,591.187 352.829,592.52 351.5,595.5C 333.818,589.318 321.985,577.318 316,559.5C 295.299,483.802 274.799,408.135 254.5,332.5C 253.526,326.528 253.359,320.528 254,314.5C 254.444,309.684 255.944,305.35 258.5,301.5 Z"/></g>
</svg>
